<svg width="458" height="283" viewBox="0 0 458 283" fill="none" xmlns="http://www.w3.org/2000/svg">
<mask id="path-1-inside-1" fill="white">
<rect y="260.94" width="458" height="22" rx="3"/>
</mask>
<rect y="260.94" width="458" height="22" rx="3" stroke="url(#paint0_linear)" stroke-width="10" mask="url(#path-1-inside-1)"/>
<rect x="192.75" y="264.75" width="72.5" height="3.5" rx="1.75" stroke="url(#paint1_linear)" stroke-width="3.5"/>
<path d="M49.5 11C49.5 6.30558 53.3056 2.5 58 2.5H400C404.694 2.5 408.5 6.30558 408.5 11V259.5H49.5V11Z" stroke="url(#paint2_linear)" stroke-width="5"/>
<path d="M55 13C55 10.2386 57.2386 8 60 8H398C400.761 8 403 10.2386 403 13V262H55V13Z" stroke="url(#paint3_linear)" stroke-width="8"/>
<mask id="path-5-inside-2" fill="white">
<rect x="148.249" y="79.8267" width="40.7278" height="40.7278" rx="2"/>
</mask>
<rect x="148.249" y="79.8267" width="40.7278" height="40.7278" rx="2" stroke="url(#paint4_linear)" stroke-width="6" mask="url(#path-5-inside-2)"/>
<path d="M165.478 102.535H161.926L161.266 104.167H158.842L162.55 95.767H164.89L168.61 104.167H166.138L165.478 102.535ZM164.782 100.783L163.702 98.095L162.622 100.783H164.782ZM169.175 95.263H171.455V104.167H169.175V95.263ZM178.07 103.903C177.878 104.023 177.642 104.115 177.362 104.179C177.09 104.243 176.798 104.275 176.486 104.275C175.638 104.275 174.986 104.067 174.53 103.651C174.074 103.235 173.846 102.615 173.846 101.791V99.607H172.898V97.903H173.846V96.211H176.126V97.903H177.614V99.607H176.126V101.767C176.126 101.999 176.186 102.183 176.306 102.319C176.434 102.447 176.602 102.511 176.81 102.511C177.074 102.511 177.306 102.443 177.506 102.307L178.07 103.903Z" fill="url(#paint5_linear)"/>
<rect x="205.395" y="94.4883" width="2.94983" height="12.6843" rx="1.47492" fill="url(#paint6_linear)"/>
<rect x="213.065" y="99.5029" width="2.94983" height="12.6843" rx="1.47492" transform="rotate(90 213.065 99.5029)" fill="url(#paint7_linear)"/>
<rect x="289.633" y="97.7466" width="2.94983" height="12.6843" rx="1.47492" transform="rotate(90 289.633 97.7466)" fill="url(#paint8_linear)"/>
<rect x="289.633" y="103.056" width="2.94983" height="12.6843" rx="1.47492" transform="rotate(90 289.633 103.056)" fill="url(#paint9_linear)"/>
<mask id="path-11-inside-3" fill="white">
<rect x="224.818" y="79.8267" width="40.7278" height="40.7278" rx="2"/>
</mask>
<rect x="224.818" y="79.8267" width="40.7278" height="40.7278" rx="2" stroke="url(#paint10_linear)" stroke-width="6" mask="url(#path-11-inside-3)"/>
<path d="M247.032 99.787H249.132V103.267C248.652 103.611 248.1 103.875 247.476 104.059C246.852 104.243 246.228 104.335 245.604 104.335C244.724 104.335 243.932 104.151 243.228 103.783C242.524 103.407 241.972 102.887 241.572 102.223C241.172 101.559 240.972 100.807 240.972 99.967C240.972 99.127 241.172 98.375 241.572 97.711C241.972 97.047 242.528 96.531 243.24 96.163C243.952 95.787 244.756 95.599 245.652 95.599C246.436 95.599 247.14 95.731 247.764 95.995C248.388 96.259 248.908 96.639 249.324 97.135L247.812 98.503C247.244 97.879 246.564 97.567 245.772 97.567C245.052 97.567 244.472 97.787 244.032 98.227C243.592 98.659 243.372 99.239 243.372 99.967C243.372 100.431 243.472 100.847 243.672 101.215C243.872 101.575 244.152 101.859 244.512 102.067C244.872 102.267 245.284 102.367 245.748 102.367C246.204 102.367 246.632 102.275 247.032 102.091V99.787Z" fill="url(#paint11_linear)"/>
<path d="M307.421 104.354C307.421 103.394 307.577 102.554 307.889 101.834C308.225 101.09 308.621 100.466 309.077 99.9621C309.557 99.4581 310.181 98.8581 310.949 98.1621C311.909 97.3221 312.617 96.6021 313.073 96.0021C313.529 95.3781 313.757 94.6341 313.757 93.7701C313.757 92.5941 313.301 91.6581 312.389 90.9621C311.477 90.2421 310.217 89.8821 308.609 89.8821C305.801 89.8821 303.653 90.8301 302.165 92.7261L299.537 90.8541C300.545 89.5581 301.829 88.5621 303.389 87.8661C304.973 87.1701 306.797 86.8221 308.861 86.8221C311.477 86.8221 313.553 87.3981 315.089 88.5501C316.625 89.6781 317.393 91.2381 317.393 93.2301C317.393 94.2141 317.225 95.0901 316.889 95.8581C316.577 96.6021 316.193 97.2261 315.737 97.7301C315.281 98.2341 314.669 98.8341 313.901 99.5301C312.917 100.418 312.185 101.198 311.705 101.87C311.249 102.542 311.021 103.37 311.021 104.354H307.421ZM309.257 112.526C308.585 112.526 308.021 112.31 307.565 111.878C307.133 111.422 306.917 110.87 306.917 110.222C306.917 109.574 307.133 109.034 307.565 108.602C308.021 108.146 308.585 107.918 309.257 107.918C309.929 107.918 310.481 108.146 310.913 108.602C311.345 109.034 311.561 109.574 311.561 110.222C311.561 110.87 311.333 111.422 310.877 111.878C310.445 112.31 309.905 112.526 309.257 112.526Z" fill="url(#paint12_linear)"/>
<rect x="164.412" y="144.862" width="128.958" height="8.40378" rx="4.20189" fill="url(#paint13_linear)" stroke="url(#paint14_linear)" stroke-width="3"/>
<rect x="164.411" y="162.782" width="128.958" height="8.40378" rx="4.20189" fill="url(#paint15_linear)" stroke="url(#paint16_linear)" stroke-width="3"/>
<rect x="164.411" y="180.702" width="128.958" height="8.40378" rx="4.20189" fill="url(#paint17_linear)" stroke="url(#paint18_linear)" stroke-width="3"/>
<rect x="164.411" y="198.623" width="128.958" height="8.40378" rx="4.20189" fill="url(#paint19_linear)" stroke="url(#paint20_linear)" stroke-width="3"/>
<rect x="318.142" y="17" width="44.2857" height="10" rx="5" fill="url(#paint21_linear)"/>
<rect x="371.286" y="17" width="17.7143" height="10" rx="5" fill="url(#paint22_linear)"/>
<rect x="265" y="17" width="44.2857" height="10" rx="5" fill="url(#paint23_linear)"/>
<path d="M51 9C51 6.23858 53.2386 4 56 4H402C404.761 4 407 6.23857 407 9V33H51V9Z" stroke="url(#paint24_linear)" stroke-width="2"/>
<circle cx="229" cy="6" r="3" stroke="white" stroke-width="2"/>
<circle cx="229" cy="6" r="0.5" stroke="white"/>
<rect x="72" y="15" width="57" height="45" fill="white"/>
<path d="M100.181 60.4272L76.1807 32.8167L86.4664 19.0115L100.181 17.4272L113.895 19.0115L124.181 32.8167L100.181 60.4272Z" fill="url(#paint25_linear)"/>
<path d="M76.1807 32.8167L100.181 60.4272M76.1807 32.8167L86.4664 19.0115M76.1807 32.8167H85.7807M100.181 60.4272L124.181 32.8167M100.181 60.4272L85.7807 32.8167M100.181 60.4272L114.352 32.8167M124.181 32.8167L113.895 19.0115M124.181 32.8167H114.352M113.895 19.0115L100.181 17.4272M113.895 19.0115L114.352 32.8167M100.181 17.4272L86.4664 19.0115M100.181 17.4272L85.7807 32.8167M100.181 17.4272L114.352 32.8167M86.4664 19.0115L85.7807 32.8167M85.7807 32.8167H114.352" stroke="white"/>
<path fill-rule="evenodd" clip-rule="evenodd" d="M362.559 241L381 223.5L362.559 206V214.609H343V232.391H362.559V241Z" fill="url(#paint26_linear)"/>
<defs>
<linearGradient id="paint0_linear" x1="161.582" y1="273.981" x2="356.554" y2="419.17" gradientUnits="userSpaceOnUse">
<stop stop-color="#F6836A"/>
<stop offset="1" stop-color="#F85858"/>
</linearGradient>
<linearGradient id="paint1_linear" x1="217.813" y1="267.149" x2="261.516" y2="284.122" gradientUnits="userSpaceOnUse">
<stop stop-color="#F6836A"/>
<stop offset="1" stop-color="#F85858"/>
</linearGradient>
<linearGradient id="paint2_linear" x1="175.419" y1="155.301" x2="415.709" y2="167.243" gradientUnits="userSpaceOnUse">
<stop stop-color="#F6836A"/>
<stop offset="1" stop-color="#F85858"/>
</linearGradient>
<linearGradient id="paint3_linear" x1="176.596" y1="159.301" x2="411.631" y2="170.725" gradientUnits="userSpaceOnUse">
<stop stop-color="#F6836A"/>
<stop offset="1" stop-color="#F85858"/>
</linearGradient>
<linearGradient id="paint4_linear" x1="162.618" y1="103.968" x2="189.536" y2="104.931" gradientUnits="userSpaceOnUse">
<stop stop-color="#F6836A"/>
<stop offset="1" stop-color="#F85858"/>
</linearGradient>
<linearGradient id="paint5_linear" x1="163.577" y1="102.975" x2="186.175" y2="103.95" gradientUnits="userSpaceOnUse">
<stop stop-color="#F6836A"/>
<stop offset="1" stop-color="#F85858"/>
</linearGradient>
<linearGradient id="paint6_linear" x1="206.436" y1="102.007" x2="208.388" y2="102.023" gradientUnits="userSpaceOnUse">
<stop stop-color="#F6836A"/>
<stop offset="1" stop-color="#F85858"/>
</linearGradient>
<linearGradient id="paint7_linear" x1="214.106" y1="107.022" x2="216.058" y2="107.038" gradientUnits="userSpaceOnUse">
<stop stop-color="#F6836A"/>
<stop offset="1" stop-color="#F85858"/>
</linearGradient>
<linearGradient id="paint8_linear" x1="290.674" y1="105.265" x2="292.626" y2="105.281" gradientUnits="userSpaceOnUse">
<stop stop-color="#F6836A"/>
<stop offset="1" stop-color="#F85858"/>
</linearGradient>
<linearGradient id="paint9_linear" x1="290.674" y1="110.575" x2="292.626" y2="110.591" gradientUnits="userSpaceOnUse">
<stop stop-color="#F6836A"/>
<stop offset="1" stop-color="#F85858"/>
</linearGradient>
<linearGradient id="paint10_linear" x1="239.186" y1="103.968" x2="266.104" y2="104.931" gradientUnits="userSpaceOnUse">
<stop stop-color="#F6836A"/>
<stop offset="1" stop-color="#F85858"/>
</linearGradient>
<linearGradient id="paint11_linear" x1="240.146" y1="102.975" x2="262.744" y2="103.95" gradientUnits="userSpaceOnUse">
<stop stop-color="#F6836A"/>
<stop offset="1" stop-color="#F85858"/>
</linearGradient>
<linearGradient id="paint12_linear" x1="305.695" y1="104.211" x2="322.939" y2="104.52" gradientUnits="userSpaceOnUse">
<stop stop-color="#F6836A"/>
<stop offset="1" stop-color="#F85858"/>
</linearGradient>
<linearGradient id="paint13_linear" x1="209.467" y1="150.121" x2="284.02" y2="180.98" gradientUnits="userSpaceOnUse">
<stop stop-color="#F6836A"/>
<stop offset="1" stop-color="#F85858"/>
</linearGradient>
<linearGradient id="paint14_linear" x1="209.467" y1="150.121" x2="284.02" y2="180.98" gradientUnits="userSpaceOnUse">
<stop stop-color="#F6836A"/>
<stop offset="1" stop-color="#F85858"/>
</linearGradient>
<linearGradient id="paint15_linear" x1="209.466" y1="168.042" x2="284.019" y2="198.9" gradientUnits="userSpaceOnUse">
<stop stop-color="#F6836A"/>
<stop offset="1" stop-color="#F85858"/>
</linearGradient>
<linearGradient id="paint16_linear" x1="209.466" y1="168.042" x2="284.019" y2="198.9" gradientUnits="userSpaceOnUse">
<stop stop-color="#F6836A"/>
<stop offset="1" stop-color="#F85858"/>
</linearGradient>
<linearGradient id="paint17_linear" x1="209.466" y1="185.962" x2="284.019" y2="216.82" gradientUnits="userSpaceOnUse">
<stop stop-color="#F6836A"/>
<stop offset="1" stop-color="#F85858"/>
</linearGradient>
<linearGradient id="paint18_linear" x1="209.466" y1="185.962" x2="284.019" y2="216.82" gradientUnits="userSpaceOnUse">
<stop stop-color="#F6836A"/>
<stop offset="1" stop-color="#F85858"/>
</linearGradient>
<linearGradient id="paint19_linear" x1="209.466" y1="203.882" x2="284.019" y2="234.74" gradientUnits="userSpaceOnUse">
<stop stop-color="#F6836A"/>
<stop offset="1" stop-color="#F85858"/>
</linearGradient>
<linearGradient id="paint20_linear" x1="209.466" y1="203.882" x2="284.019" y2="234.74" gradientUnits="userSpaceOnUse">
<stop stop-color="#F6836A"/>
<stop offset="1" stop-color="#F85858"/>
</linearGradient>
<linearGradient id="paint21_linear" x1="333.766" y1="22.9275" x2="362.355" y2="27.4564" gradientUnits="userSpaceOnUse">
<stop stop-color="#F6836A"/>
<stop offset="1" stop-color="#F85858"/>
</linearGradient>
<linearGradient id="paint22_linear" x1="377.536" y1="22.9275" x2="389.212" y2="23.6674" gradientUnits="userSpaceOnUse">
<stop stop-color="#F6836A"/>
<stop offset="1" stop-color="#F85858"/>
</linearGradient>
<linearGradient id="paint23_linear" x1="280.624" y1="22.9275" x2="309.213" y2="27.4564" gradientUnits="userSpaceOnUse">
<stop stop-color="#F6836A"/>
<stop offset="1" stop-color="#F85858"/>
</linearGradient>
<linearGradient id="paint24_linear" x1="176.302" y1="21.3754" x2="378.681" y2="104.975" gradientUnits="userSpaceOnUse">
<stop stop-color="#F6836A"/>
<stop offset="1" stop-color="#F85858"/>
</linearGradient>
<linearGradient id="paint25_linear" x1="93.115" y1="42.9157" x2="124.829" y2="44.182" gradientUnits="userSpaceOnUse">
<stop stop-color="#F6836A"/>
<stop offset="1" stop-color="#F85858"/>
</linearGradient>
<linearGradient id="paint26_linear" x1="356.406" y1="226.746" x2="381.516" y2="227.722" gradientUnits="userSpaceOnUse">
<stop stop-color="#F6836A"/>
<stop offset="1" stop-color="#F85858"/>
</linearGradient>
</defs>
</svg>
