<svg width="267" height="255" viewBox="0 0 267 255" fill="none" xmlns="http://www.w3.org/2000/svg">
<rect x="3.5" y="152.5" width="99" height="99" rx="11.5" stroke="white" stroke-width="7"/>
<path d="M36.4636 213.42C34.2636 213.42 32.2836 212.96 30.5236 212.04C28.7836 211.1 27.4136 209.8 26.4136 208.14C25.4136 206.48 24.9136 204.6 24.9136 202.5C24.9136 200.4 25.4136 198.52 26.4136 196.86C27.4136 195.2 28.7836 193.91 30.5236 192.99C32.2836 192.05 34.2636 191.58 36.4636 191.58C38.3836 191.58 40.1136 191.92 41.6536 192.6C43.1936 193.28 44.4736 194.26 45.4936 195.54L41.7136 198.96C40.3536 197.32 38.7036 196.5 36.7636 196.5C35.6236 196.5 34.6036 196.75 33.7036 197.25C32.8236 197.75 32.1336 198.46 31.6336 199.38C31.1536 200.28 30.9136 201.32 30.9136 202.5C30.9136 203.68 31.1536 204.73 31.6336 205.65C32.1336 206.55 32.8236 207.25 33.7036 207.75C34.6036 208.25 35.6236 208.5 36.7636 208.5C38.7036 208.5 40.3536 207.68 41.7136 206.04L45.4936 209.46C44.4736 210.74 43.1936 211.72 41.6536 212.4C40.1136 213.08 38.3836 213.42 36.4636 213.42ZM59.092 212.34C58.612 212.64 58.022 212.87 57.322 213.03C56.642 213.19 55.912 213.27 55.132 213.27C53.012 213.27 51.382 212.75 50.242 211.71C49.102 210.67 48.532 209.12 48.532 207.06V201.6H46.162V197.34H48.532V193.11H54.232V197.34H57.952V201.6H54.232V207C54.232 207.58 54.382 208.04 54.682 208.38C55.002 208.7 55.422 208.86 55.942 208.86C56.602 208.86 57.182 208.69 57.682 208.35L59.092 212.34ZM66.72 198.69C67.3 197.95 68.05 197.4 68.97 197.04C69.91 196.66 70.98 196.47 72.18 196.47V201.6C71.66 201.54 71.23 201.51 70.89 201.51C69.67 201.51 68.71 201.84 68.01 202.5C67.33 203.16 66.99 204.17 66.99 205.53V213H61.29V196.74H66.72V198.69ZM74.5321 190.74H80.2321V213H74.5321V190.74Z" fill="white"/>
<rect x="129" y="106" width="10" height="43" rx="3" fill="white"/>
<rect x="155" y="123" width="10" height="43" rx="3" transform="rotate(90 155 123)" fill="white"/>
<rect x="164.5" y="3.5" width="99" height="99" rx="11.5" stroke="white" stroke-width="7"/>
<path d="M215.895 68.3967C213.108 68.3967 210.6 67.8141 208.371 66.6487C206.167 65.4581 204.431 63.8114 203.165 61.7087C201.898 59.6061 201.265 57.2247 201.265 54.5647C201.265 51.9047 201.898 49.5234 203.165 47.4207C204.431 45.3181 206.167 43.6841 208.371 42.5187C210.6 41.3281 213.108 40.7327 215.895 40.7327C218.327 40.7327 220.518 41.1634 222.469 42.0247C224.419 42.8861 226.041 44.1274 227.333 45.7487L222.545 50.0807C220.822 48.0034 218.732 46.9647 216.275 46.9647C214.831 46.9647 213.539 47.2814 212.399 47.9147C211.284 48.5481 210.41 49.4474 209.777 50.6127C209.169 51.7527 208.865 53.0701 208.865 54.5647C208.865 56.0594 209.169 57.3894 209.777 58.5547C210.41 59.6947 211.284 60.5814 212.399 61.2147C213.539 61.8481 214.831 62.1647 216.275 62.1647C218.732 62.1647 220.822 61.1261 222.545 59.0487L227.333 63.3807C226.041 65.0021 224.419 66.2434 222.469 67.1047C220.518 67.9661 218.327 68.3967 215.895 68.3967Z" fill="white"/>
</svg>
