<svg width="832" height="915" viewBox="0 0 832 915" fill="none" xmlns="http://www.w3.org/2000/svg">
<rect x="95.0862" y="-8.34619" width="149.403" height="140.615" rx="12" transform="rotate(10.2211 95.0862 -8.34619)" fill="#7C7C7C"/>
<rect x="257.254" y="20.894" width="149.403" height="140.615" rx="12" transform="rotate(10.2211 257.254 20.894)" fill="#7C7C7C"/>
<rect x="319.607" y="195.112" width="149.403" height="140.615" rx="12" transform="rotate(10.2211 319.607 195.112)" fill="#7C7C7C"/>
<rect x="481.776" y="224.353" width="149.403" height="140.615" rx="12" transform="rotate(10.2211 481.776 224.353)" fill="#7C7C7C"/>
<rect x="643.944" y="253.593" width="149.403" height="140.615" rx="12" transform="rotate(10.2211 643.944 253.593)" fill="#7C7C7C"/>
<rect x="806.112" y="282.833" width="149.403" height="140.615" rx="12" transform="rotate(10.2211 806.112 282.833)" fill="#7C7C7C"/>
<rect x="325.743" y="359.194" width="149.403" height="140.615" rx="12" transform="rotate(10.2211 325.743 359.194)" fill="#7C7C7C"/>
<rect x="487.912" y="388.434" width="149.403" height="140.615" rx="12" transform="rotate(10.2211 487.912 388.434)" fill="#7C7C7C"/>
<rect x="650.079" y="417.674" width="149.403" height="140.615" rx="12" transform="rotate(10.2211 650.079 417.674)" fill="#7C7C7C"/>
<rect x="812.247" y="446.915" width="149.403" height="140.615" rx="12" transform="rotate(10.2211 812.247 446.915)" fill="#7C7C7C"/>
<rect x="419.422" y="50.1343" width="149.403" height="140.615" rx="12" transform="rotate(10.2211 419.422 50.1343)" fill="#7C7C7C"/>
<rect x="581.59" y="79.3745" width="149.403" height="140.615" rx="12" transform="rotate(10.2211 581.59 79.3745)" fill="#7C7C7C"/>
<rect x="743.759" y="108.615" width="149.403" height="140.615" rx="12" transform="rotate(10.2211 743.759 108.615)" fill="#7C7C7C"/>
<rect x="66.6257" y="149.497" width="239.485" height="140.615" rx="12" transform="rotate(10.2211 66.6257 149.497)" fill="#7C7C7C"/>
<rect x="-18.7556" y="623.028" width="149.403" height="158.192" rx="12" transform="rotate(10.2211 -18.7556 623.028)" fill="#7C7C7C"/>
<rect x="143.412" y="652.268" width="149.403" height="158.192" rx="12" transform="rotate(10.2211 143.412 652.268)" fill="#7C7C7C"/>
<rect x="305.58" y="681.508" width="149.403" height="158.192" rx="12" transform="rotate(10.2211 305.58 681.508)" fill="#7C7C7C"/>
<rect x="38.1653" y="307.341" width="276.836" height="140.615" rx="12" transform="rotate(10.2211 38.1653 307.341)" fill="#7C7C7C"/>
<rect x="283.625" y="-88.2104" width="153.798" height="92.2785" rx="12" transform="rotate(10.2211 283.625 -88.2104)" fill="#7C7C7C"/>
<rect x="452.279" y="-57.8008" width="153.798" height="92.2785" rx="12" transform="rotate(10.2211 452.279 -57.8008)" fill="#7C7C7C"/>
<rect x="620.934" y="-27.3906" width="153.798" height="92.2785" rx="12" transform="rotate(10.2211 620.934 -27.3906)" fill="#7C7C7C"/>
<rect x="789.589" y="3.01904" width="153.798" height="92.2785" rx="12" transform="rotate(10.2211 789.589 3.01904)" fill="#7C7C7C"/>
<rect x="543.778" y="561.482" width="149.403" height="140.615" rx="12" transform="rotate(10.2211 543.778 561.482)" fill="#7C7C7C"/>
<rect x="705.946" y="590.723" width="149.403" height="140.615" rx="12" transform="rotate(10.2211 705.946 590.723)" fill="#7C7C7C"/>
<rect x="677.485" y="748.566" width="808.536" height="158.192" rx="12" transform="rotate(10.2211 677.485 748.566)" fill="#7C7C7C"/>
<rect x="381.61" y="532.242" width="149.403" height="140.615" rx="12" transform="rotate(10.2211 381.61 532.242)" fill="#7C7C7C"/>
<rect x="219.442" y="503.002" width="149.403" height="140.615" rx="12" transform="rotate(10.2211 219.442 503.002)" fill="#7C7C7C"/>
<rect x="9.70483" y="465.185" width="197.74" height="140.615" rx="12" transform="rotate(10.2211 9.70483 465.185)" fill="#7C7C7C"/>
<rect x="467.748" y="710.749" width="197.74" height="158.192" rx="12" transform="rotate(10.2211 467.748 710.749)" fill="#7C7C7C"/>
</svg>
