<svg width="218" height="129" viewBox="0 0 218 129" fill="none" xmlns="http://www.w3.org/2000/svg">
<path fill-rule="evenodd" clip-rule="evenodd" d="M218 119L218 43.9449L218 43.9449L218 10C218 4.47715 213.523 -1.95102e-07 208 -4.35766e-07L115.96 -4.44649e-06C110.437 -4.68716e-06 105.96 4.47714 105.96 9.99999L105.96 43.9449L10 43.9449C4.47716 43.9449 -2.12317e-06 48.4221 -2.36533e-06 53.9449L-5.21781e-06 119C-5.45997e-06 124.523 4.47715 129 9.99999 129L208 129C213.523 129 218 124.523 218 119Z" fill="url(#paint0_linear)"/>
<path d="M137.723 87.488C137.723 86.976 137.531 86.56 137.147 86.24C136.779 85.92 136.307 85.632 135.731 85.376C135.171 85.104 134.555 84.832 133.883 84.56C133.227 84.272 132.611 83.928 132.035 83.528C131.475 83.112 131.003 82.6 130.619 81.992C130.251 81.384 130.067 80.608 130.067 79.664C130.067 78.848 130.203 78.144 130.475 77.552C130.747 76.944 131.131 76.44 131.627 76.04C132.139 75.64 132.739 75.344 133.427 75.152C134.115 74.96 134.883 74.864 135.731 74.864C136.707 74.864 137.627 74.952 138.491 75.128C139.355 75.288 140.067 75.528 140.627 75.848L139.595 78.608C139.243 78.384 138.715 78.184 138.011 78.008C137.307 77.816 136.547 77.72 135.731 77.72C134.963 77.72 134.371 77.872 133.955 78.176C133.555 78.48 133.355 78.888 133.355 79.4C133.355 79.88 133.539 80.28 133.907 80.6C134.291 80.92 134.763 81.216 135.323 81.488C135.899 81.76 136.515 82.04 137.171 82.328C137.843 82.616 138.459 82.968 139.019 83.384C139.595 83.784 140.067 84.288 140.435 84.896C140.819 85.488 141.011 86.232 141.011 87.128C141.011 88.024 140.859 88.8 140.555 89.456C140.267 90.096 139.851 90.632 139.307 91.064C138.779 91.496 138.131 91.816 137.363 92.024C136.611 92.232 135.779 92.336 134.867 92.336C133.667 92.336 132.611 92.224 131.699 92C130.787 91.776 130.115 91.552 129.683 91.328L130.739 88.52C130.915 88.616 131.139 88.72 131.411 88.832C131.699 88.944 132.019 89.048 132.371 89.144C132.723 89.24 133.091 89.32 133.475 89.384C133.875 89.448 134.283 89.48 134.699 89.48C135.675 89.48 136.419 89.32 136.931 89C137.459 88.664 137.723 88.16 137.723 87.488ZM155.13 78.128H150.234V92H146.946V78.128H142.026V75.2H155.13V78.128ZM163.247 88.28H158.087L156.815 92H153.527L159.575 75.08H161.999L168.047 92H164.591L163.247 88.28ZM158.927 85.64H162.527L161.279 81.896L160.775 79.256H160.655L160.151 81.92L158.927 85.64ZM169.499 75.368C169.867 75.304 170.259 75.248 170.675 75.2C171.107 75.136 171.531 75.088 171.947 75.056C172.379 75.024 172.795 75 173.195 74.984C173.595 74.968 173.963 74.96 174.299 74.96C175.083 74.96 175.851 75.032 176.603 75.176C177.371 75.32 178.051 75.568 178.643 75.92C179.251 76.272 179.731 76.76 180.083 77.384C180.451 77.992 180.635 78.76 180.635 79.688C180.635 81.064 180.315 82.184 179.675 83.048C179.035 83.912 178.179 84.512 177.107 84.848L178.283 85.592L182.123 92H178.331L174.515 85.424L172.787 85.112V92H169.499V75.368ZM174.539 77.888C174.203 77.888 173.867 77.896 173.531 77.912C173.211 77.928 172.963 77.96 172.787 78.008V82.88H174.179C175.091 82.88 175.819 82.672 176.363 82.256C176.907 81.84 177.179 81.152 177.179 80.192C177.179 79.472 176.955 78.912 176.507 78.512C176.059 78.096 175.403 77.888 174.539 77.888ZM194.692 78.128H189.796V92H186.508V78.128H181.588V75.2H194.692V78.128Z" fill="white"/>
<path fill-rule="evenodd" clip-rule="evenodd" d="M117 75H120V92H117H70.25V96.9952L59 90.5L70.25 84.0048V89L117 89V75Z" fill="white"/>
<defs>
<linearGradient id="paint0_linear" x1="88.7797" y1="45.511" x2="86.9736" y2="130.841" gradientUnits="userSpaceOnUse">
<stop stop-color="#F6836A"/>
<stop offset="1" stop-color="#F85858"/>
</linearGradient>
</defs>
</svg>
